<svg xmlns="http://www.w3.org/2000/svg" width="1600" height="900" viewBox="0 0 1600 900"><defs><marker id="a" markerWidth="10" markerHeight="10" refX="8" refY="3" orient="auto"><path d="M0,0 L0,6 L9,3 z" fill="#8ec5ff"/></marker></defs><rect width="1600" height="900" fill="#0b1020"/><text x="60" y="60" fill="#fff" font-family="Arial" font-size="32" font-weight="700">L0 — Platform Overview</text><text x="60" y="92" fill="#9fb0c8" font-family="Arial" font-size="15">Current-state topology · direct branches shown; Hub is not mandatory for every request</text><path d="M310 192 L390 192" stroke="#8ec5ff" stroke-width="3" fill="none" marker-end="url(#a)"/><text x="350" y="184" text-anchor="middle" fill="#9fb0c8" font-family="Arial" font-size="12">UI calls</text><path d="M650 185 L760 162" stroke="#8ec5ff" stroke-width="3" fill="none" marker-end="url(#a)"/><text x="705" y="165.5" text-anchor="middle" fill="#9fb0c8" font-family="Arial" font-size="12">selected routes</text><path d="M650 195 L760 292" stroke="#8ec5ff" stroke-width="3" fill="none" marker-end="url(#a)"/><text x="705" y="235.5" text-anchor="middle" fill="#9fb0c8" font-family="Arial" font-size="12">direct data</text><path d="M650 205 L760 422" stroke="#8ec5ff" stroke-width="3" fill="none" marker-end="url(#a)"/><text x="705" y="305.5" text-anchor="middle" fill="#9fb0c8" font-family="Arial" font-size="12">context</text><path d="M1010 162 L1110 162" stroke="#8ec5ff" stroke-width="3" fill="none" marker-end="url(#a)"/><text x="1060" y="154" text-anchor="middle" fill="#9fb0c8" font-family="Arial" font-size="12">automation</text><path d="M1010 292 L1110 292" stroke="#8ec5ff" stroke-width="3" fill="none" marker-end="url(#a)"/><text x="1060" y="284" text-anchor="middle" fill="#9fb0c8" font-family="Arial" font-size="12">data</text><path d="M1010 422 L1110 422" stroke="#8ec5ff" stroke-width="3" fill="none" marker-end="url(#a)"/><text x="1060" y="414" text-anchor="middle" fill="#9fb0c8" font-family="Arial" font-size="12">AI</text><path d="M650 220 L760 572" stroke="#d8b85a" stroke-width="3" fill="none" marker-end="url(#a)"/><text x="705" y="388" text-anchor="middle" fill="#9fb0c8" font-family="Arial" font-size="12">parallel shadow</text><rect x="60" y="150" width="250" height="85" rx="14" fill="#172238" stroke="#58708f"/><text x="185" y="182" text-anchor="middle" fill="#fff" font-family="Arial" font-size="17" font-weight="700">Browser / User</text><text x="185" y="208" text-anchor="middle" fill="#c5d0df" font-family="Arial" font-size="12">Next.js UI</text><rect x="390" y="150" width="260" height="85" rx="14" fill="#172238" stroke="#58708f"/><text x="520" y="182" text-anchor="middle" fill="#fff" font-family="Arial" font-size="17" font-weight="700">Next.js API Boundary</text><text x="520" y="208" text-anchor="middle" fill="#c5d0df" font-family="Arial" font-size="12">middleware + server routes</text><rect x="760" y="120" width="250" height="85" rx="14" fill="#172238" stroke="#58708f"/><text x="885" y="152" text-anchor="middle" fill="#fff" font-family="Arial" font-size="17" font-weight="700">Hub v1</text><text x="885" y="178" text-anchor="middle" fill="#c5d0df" font-family="Arial" font-size="12">production orchestration</text><rect x="760" y="250" width="250" height="85" rx="14" fill="#172238" stroke="#58708f"/><text x="885" y="282" text-anchor="middle" fill="#fff" font-family="Arial" font-size="17" font-weight="700">Supabase Direct</text><text x="885" y="308" text-anchor="middle" fill="#c5d0df" font-family="Arial" font-size="12">service-role server routes</text><rect x="760" y="380" width="250" height="85" rx="14" fill="#493d16" stroke="#58708f"/><text x="885" y="412" text-anchor="middle" fill="#fff" font-family="Arial" font-size="17" font-weight="700">Brains Context</text><text x="885" y="438" text-anchor="middle" fill="#c5d0df" font-family="Arial" font-size="12">read-only aggregation</text><rect x="1110" y="120" width="250" height="85" rx="14" fill="#172238" stroke="#58708f"/><text x="1235" y="152" text-anchor="middle" fill="#fff" font-family="Arial" font-size="17" font-weight="700">n8n / FB / WP</text><text x="1235" y="178" text-anchor="middle" fill="#c5d0df" font-family="Arial" font-size="12">automation + publishing</text><rect x="1110" y="250" width="250" height="85" rx="14" fill="#172238" stroke="#58708f"/><text x="1235" y="282" text-anchor="middle" fill="#fff" font-family="Arial" font-size="17" font-weight="700">Supabase</text><text x="1235" y="308" text-anchor="middle" fill="#c5d0df" font-family="Arial" font-size="12">business + state data</text><rect x="1110" y="380" width="250" height="85" rx="14" fill="#172238" stroke="#58708f"/><text x="1235" y="412" text-anchor="middle" fill="#fff" font-family="Arial" font-size="17" font-weight="700">Claude / OpenAI</text><text x="1235" y="438" text-anchor="middle" fill="#c5d0df" font-family="Arial" font-size="12">AI providers</text><rect x="760" y="530" width="250" height="85" rx="14" fill="#493d16" stroke="#58708f"/><text x="885" y="562" text-anchor="middle" fill="#fff" font-family="Arial" font-size="17" font-weight="700">Hub v2</text><text x="885" y="588" text-anchor="middle" fill="#c5d0df" font-family="Arial" font-size="12">shadow / partial</text><text x="60" y="790" fill="#d6deeb" font-family="Arial" font-size="13">Evidence rule: only concrete code paths are drawn. Hub v2 is parallel/shadow, never a v1 downstream hop.</text></svg>