<svg xmlns="http://www.w3.org/2000/svg" width="1600" height="900" viewBox="0 0 1600 900"><defs><marker id="a" markerWidth="10" markerHeight="10" refX="8" refY="3" orient="auto"><path d="M0,0 L0,6 L9,3 z" fill="#8ec5ff"/></marker></defs><rect width="1600" height="900" fill="#0b1020"/><text x="60" y="60" fill="#fff" font-family="Arial" font-size="32" font-weight="700">L4 — Brains &amp; Assistant Architecture</text><text x="60" y="92" fill="#9fb0c8" font-family="Arial" font-size="15">Brains aggregates internal evidence; Assistant is the reasoning/tool layer</text><path d="M300 187 L390 187" stroke="#8ec5ff" stroke-width="3" fill="none" marker-end="url(#a)"/><text x="345" y="179" text-anchor="middle" fill="#9fb0c8" font-family="Arial" font-size="12">message</text><path d="M650 187 L760 117" stroke="#8ec5ff" stroke-width="3" fill="none" marker-end="url(#a)"/><text x="705" y="144" text-anchor="middle" fill="#9fb0c8" font-family="Arial" font-size="12">tool</text><path d="M650 187 L760 227" stroke="#8ec5ff" stroke-width="3" fill="none" marker-end="url(#a)"/><text x="705" y="199" text-anchor="middle" fill="#9fb0c8" font-family="Arial" font-size="12">tool</text><path d="M650 187 L760 337" stroke="#8ec5ff" stroke-width="3" fill="none" marker-end="url(#a)"/><text x="705" y="254" text-anchor="middle" fill="#9fb0c8" font-family="Arial" font-size="12">tool</text><path d="M1020 117 L1130 117" stroke="#8ec5ff" stroke-width="3" fill="none" marker-end="url(#a)"/><text x="1075" y="109" text-anchor="middle" fill="#9fb0c8" font-family="Arial" font-size="12"></text><path d="M1400 117 L1400 227" stroke="#8ec5ff" stroke-width="3" fill="none" marker-end="url(#a)"/><text x="1400" y="164" text-anchor="middle" fill="#9fb0c8" font-family="Arial" font-size="12">reads</text><path d="M1020 337 L1130 337" stroke="#8ec5ff" stroke-width="3" fill="none" marker-end="url(#a)"/><text x="1075" y="329" text-anchor="middle" fill="#9fb0c8" font-family="Arial" font-size="12">prompt + evidence</text><rect x="60" y="150" width="240" height="75" rx="14" fill="#172238" stroke="#58708f"/><text x="180" y="182" text-anchor="middle" fill="#fff" font-family="Arial" font-size="17" font-weight="700">AssistantChat</text><text x="180" y="208" text-anchor="middle" fill="#c5d0df" font-family="Arial" font-size="12">global UI</text><rect x="390" y="150" width="260" height="75" rx="14" fill="#493d16" stroke="#58708f"/><text x="520" y="182" text-anchor="middle" fill="#fff" font-family="Arial" font-size="17" font-weight="700">/api/assistant</text><text x="520" y="208" text-anchor="middle" fill="#c5d0df" font-family="Arial" font-size="12">Claude tool loop</text><rect x="760" y="80" width="260" height="75" rx="14" fill="#172238" stroke="#58708f"/><text x="890" y="112" text-anchor="middle" fill="#fff" font-family="Arial" font-size="17" font-weight="700">get_brains_context</text><text x="890" y="138" text-anchor="middle" fill="#c5d0df" font-family="Arial" font-size="12">shared context</text><rect x="760" y="190" width="260" height="75" rx="14" fill="#172238" stroke="#58708f"/><text x="890" y="222" text-anchor="middle" fill="#fff" font-family="Arial" font-size="17" font-weight="700">Hub tools</text><text x="890" y="248" text-anchor="middle" fill="#c5d0df" font-family="Arial" font-size="12">dashboard / queue actions</text><rect x="760" y="300" width="260" height="75" rx="14" fill="#172238" stroke="#58708f"/><text x="890" y="332" text-anchor="middle" fill="#fff" font-family="Arial" font-size="17" font-weight="700">Supabase tools</text><text x="890" y="358" text-anchor="middle" fill="#c5d0df" font-family="Arial" font-size="12">leads / deals / market / QC</text><rect x="1130" y="80" width="270" height="75" rx="14" fill="#493d16" stroke="#58708f"/><text x="1265" y="112" text-anchor="middle" fill="#fff" font-family="Arial" font-size="17" font-weight="700">/api/brains/context</text><text x="1265" y="138" text-anchor="middle" fill="#c5d0df" font-family="Arial" font-size="12">read-only aggregation</text><rect x="1130" y="190" width="270" height="75" rx="14" fill="#172238" stroke="#58708f"/><text x="1265" y="222" text-anchor="middle" fill="#fff" font-family="Arial" font-size="17" font-weight="700">Supabase domains</text><text x="1265" y="248" text-anchor="middle" fill="#c5d0df" font-family="Arial" font-size="12">internal evidence</text><rect x="1130" y="300" width="270" height="75" rx="14" fill="#172238" stroke="#58708f"/><text x="1265" y="332" text-anchor="middle" fill="#fff" font-family="Arial" font-size="17" font-weight="700">Claude</text><text x="1265" y="358" text-anchor="middle" fill="#c5d0df" font-family="Arial" font-size="12">response generation</text><rect x="390" y="500" width="260" height="75" rx="14" fill="#3b1f2a" stroke="#58708f"/><text x="520" y="532" text-anchor="middle" fill="#fff" font-family="Arial" font-size="17" font-weight="700">Chat persistence</text><text x="520" y="558" text-anchor="middle" fill="#c5d0df" font-family="Arial" font-size="12">NOT IMPLEMENTED</text><rect x="760" y="500" width="260" height="75" rx="14" fill="#493d16" stroke="#58708f"/><text x="890" y="532" text-anchor="middle" fill="#fff" font-family="Arial" font-size="17" font-weight="700">Mechanical evidence validator</text><text x="890" y="558" text-anchor="middle" fill="#c5d0df" font-family="Arial" font-size="12">NOT PROVEN</text><text x="60" y="790" fill="#d6deeb" font-family="Arial" font-size="13">Internal-evidence-only exists as policy/tool discipline; do not claim sentence-level mechanical grounding.</text></svg>